<svg xmlns="http://www.w3.org/2000/svg" width="38.71" height="39.116" viewBox="0 0 38.71 39.116"><defs><style>.a{fill:#fff;}</style></defs><path class="a" d="M-685.488,40.124a16.441,16.441,0,0,1-11.68-4.811A16.306,16.306,0,0,1-702,23.678a16.3,16.3,0,0,1,4.831-11.629A16.394,16.394,0,0,1-691,8.219a2.079,2.079,0,0,1,.686-.117,2.048,2.048,0,0,1,1.459.6,2.056,2.056,0,0,1,.49,2.137,12.186,12.186,0,0,0,2.871,12.84,12.2,12.2,0,0,0,8.668,3.587,12.714,12.714,0,0,0,4.225-.728,2.044,2.044,0,0,1,.686-.118,2.079,2.079,0,0,1,1.46.6,2.049,2.049,0,0,1,.487,2.137,16.211,16.211,0,0,1-3.847,6.147A16.427,16.427,0,0,1-685.488,40.124ZM-693.2,14.031a11.54,11.54,0,0,0-1.054.926,12.23,12.23,0,0,0-3.623,8.727,12.222,12.222,0,0,0,3.623,8.72,12.315,12.315,0,0,0,8.764,3.572,12.208,12.208,0,0,0,9.69-4.622c-.352.022-.7.032-1.033.032a16.325,16.325,0,0,1-11.581-4.8,16.258,16.258,0,0,1-3.778-5.817,16.1,16.1,0,0,1-1.007-6.742Zm17.666,9.778h0a4.15,4.15,0,0,0-1.187-2.865,4.187,4.187,0,0,0-2.9-1.32,4.137,4.137,0,0,0,2.9-1.319,4.157,4.157,0,0,0,1.188-2.957,4.157,4.157,0,0,0,1.188,2.957,4.125,4.125,0,0,0,2.893,1.319,4.129,4.129,0,0,0-2.893,1.32A4.15,4.15,0,0,0-675.529,23.809Zm-8.076-5.635h0a2.78,2.78,0,0,0-.815-1.934,2.842,2.842,0,0,0-1.98-.9,2.838,2.838,0,0,0,1.98-.9,2.828,2.828,0,0,0,.816-2.008,2.821,2.821,0,0,0,.8,2.008,2.839,2.839,0,0,0,1.98.9,2.841,2.841,0,0,0-1.98.9A2.818,2.818,0,0,0-683.6,18.174Zm16.224-.065h0a4.187,4.187,0,0,0-1.175-2.865,4.162,4.162,0,0,0-2.892-1.309,4.123,4.123,0,0,0,2.892-1.319,4.112,4.112,0,0,0,1.176-2.968,4.156,4.156,0,0,0,1.188,2.956,4.138,4.138,0,0,0,2.9,1.32,4.138,4.138,0,0,0-2.9,1.32A4.15,4.15,0,0,0-667.381,18.109Zm-10.788-5.8h0a5.529,5.529,0,0,0-1.583-3.834A5.5,5.5,0,0,0-683.606,6.7a5.536,5.536,0,0,0,3.852-1.764,5.521,5.521,0,0,0,1.584-3.928,5.521,5.521,0,0,0,1.584,3.928A5.534,5.534,0,0,0-672.722,6.7a5.531,5.531,0,0,0-2.748.852,5.785,5.785,0,0,0-1.98,2.076A5.6,5.6,0,0,0-678.169,12.31Z" transform="translate(702 -1.008)"/></svg>