<svg xmlns="http://www.w3.org/2000/svg" width="41" height="41" viewBox="0 0 41 41"><defs><style>.a{fill:none;stroke:#fff;stroke-linecap:round;stroke-linejoin:round;stroke-width:3px;}</style></defs><path class="a" d="M25.5,18A7.5,7.5,0,1,1,18,10.5,7.5,7.5,0,0,1,25.5,18Z" transform="translate(2.5 2.5)"/><path class="a" d="M18,1.5v3" transform="translate(2.5)"/><path class="a" d="M18,31.5v3" transform="translate(2.5 5)"/><path class="a" d="M6.33,6.33,8.46,8.46" transform="translate(0.97 0.97)"/><path class="a" d="M27.54,27.54l2.13,2.13" transform="translate(4.03 4.03)"/><path class="a" d="M1.5,18h3" transform="translate(0 2.5)"/><path class="a" d="M31.5,18h3" transform="translate(5 2.5)"/><path class="a" d="M6.33,29.67l2.13-2.13" transform="translate(0.97 4.03)"/><path class="a" d="M27.54,8.46l2.13-2.13" transform="translate(4.03 0.97)"/></svg>
