<svg xmlns="http://www.w3.org/2000/svg" width="528.633" height="284.818" viewBox="0 0 528.633 284.818"><defs><style>.a{fill:#707070;}</style></defs><path class="a" d="M151.813-274.313V-95.052H171.3v46.764H151.813V0H83.361V-48.289H2.033V-95.052L61.166-274.313ZM83.361-95.052v-116.74L53.117-95.052ZM347-181.463v91.494q0,31.176-3.389,45.408a62.773,62.773,0,0,1-14.063,26.6A60.626,60.626,0,0,1,303.794-.169a99.128,99.128,0,0,1-33.717,5.422q-24.568,0-40.833-5.676T203.32-18.129A75.8,75.8,0,0,1,189.6-43.46q-4.066-13.3-4.066-42.274v-95.73q0-37.784,6.523-56.591t25.923-30.159q19.4-11.352,47.018-11.352,22.535,0,40.325,7.879t26.6,19.231a63.456,63.456,0,0,1,11.945,25.584Q347-212.639,347-181.463Zm-68.451-23.043q0-21.857-2.118-27.364t-9.912-5.507q-7.625,0-10.081,5.845t-2.457,27.025V-70.654q0,23.89,2.287,28.8t9.912,4.914q7.625,0,10-5.761t2.372-25.923Zm232.632-69.807V-95.052h19.485v46.764H511.181V0H442.73V-48.289H361.4V-95.052l59.132-179.261ZM442.73-95.052v-116.74L412.486-95.052Z" transform="translate(-2.033 279.565)"/></svg>